<svg data-v-0dd9719b="" version="1.0" xmlns="http://www.w3.org/2000/svg" xmlns:xlink="http://www.w3.org/1999/xlink" width="100%" height="100%" viewBox="0 0 340.000000 250.000000" preserveAspectRatio="xMidYMid meet" color-interpolation-filters="sRGB" style="margin: auto;"> <rect data-v-0dd9719b="" x="0" y="0" width="100%" height="100%" fill="#fff" fill-opacity="1" class="background"></rect> <rect data-v-0dd9719b="" x="0" y="0" width="100%" height="100%" fill="url(#watermark)" fill-opacity="1" class="watermarklayer"></rect> <g data-v-0dd9719b="" fill="#333" class="icon-text-wrapper icon-svg-group iconsvg" transform="translate(46.5,94.20550155639648)"><g class="iconsvg-imagesvg" transform="translate(0,0)"><g><rect fill="#333" fill-opacity="0" stroke-width="2" x="0" y="0" width="60" height="61.588996099363584" class="image-rect"></rect> <svg x="0" y="0" width="60" height="61.588996099363584" filtersec="colorsb3532556650" class="image-svg-svg primary" style="overflow: visible;"><svg xmlns="http://www.w3.org/2000/svg" viewBox="-0.04207639396190643 -0.0007870469707995653 141.0950927734375 144.8312530517578"><path d="M18.91 24.24a76.07 76.07 0 0 0 .95 8.23C22.39 43.63 29.22 51 40 54.74c4.36 1.51 8.9 1.38 13.4 1.46 9.52.18 19 .26 28.56.42 7.74.12 15.48.24 23.21.46 15.63.45 29.68 12.56 32.27 28 2.38 14.21-2.32 25.73-13.69 34.54-.5.39-1.06.69-1.87 1.22 0-.74-.11-1.19-.09-1.64.48-13.5-9.39-26.33-22.52-29.46-5.25-1.25-10.55-.91-15.84-1-14.63-.31-29.26-.53-43.89-.76-6-.09-11.85-.76-17.31-3.53C12.6 79.5 6.32 71.89 3.78 61.4a34.27 34.27 0 0 1 13.44-36.1c.5-.36 1.05-.66 1.69-1.06z" fill="#ea5e37"></path><path d="M86.91 142.59c.37-1.39.8-2.74 1.09-4.13a17.89 17.89 0 0 0-17.45-21.36c-14.48 0-29-.12-43.44 0-8.54.09-15-3.3-19.65-10.39A44.65 44.65 0 0 1 0 80c0-1 .25-2 .44-3.46.56.68.85 1 1.09 1.33 8.58 11.93 20.15 18.32 34.89 18.8 19.18.61 38.36 1.13 57.54 1.79a20.55 20.55 0 0 1 9.52 38.39 64.46 64.46 0 0 1-15.39 5.82 3 3 0 0 1-.73.09 1.78 1.78 0 0 1-.45-.17z" fill="#3db04e"></path><path d="M54.07 2c-.19.76-.25 1.18-.4 1.58a18 18 0 0 0 17 24.26c14.24.05 28.47.26 42.7-.07 10.15-.23 16.89 4.49 21.68 12.91a48.09 48.09 0 0 1 6 20.81 51.23 51.23 0 0 1-.32 6.3l-.53.14a10.44 10.44 0 0 1-.91-1c-7-10-16.55-16.21-28.57-18.11-5.59-.89-11.36-.72-17.06-.92-15.81-.5-31.66-.9-47.43-1.52-13.1-.51-22.35-14.19-18.23-26.61 2-5.88 5.63-10.25 11.32-12.66C43.51 5.33 47.87 4 52.15 2.45A17.27 17.27 0 0 1 54.07 2z" fill="#303e8f"></path><path d="M22.19 126a14.1 14.1 0 0 1 1.47-.15l46-.09c4.21 0 7.41 1.76 9.17 5.64a9.52 9.52 0 0 1-8.6 13.43 70.7 70.7 0 0 1-24.34-4.23 72.22 72.22 0 0 1-22.49-13.08c-.34-.29-.67-.58-1-.9-.08-.09-.09-.26-.21-.62z" fill="#8f2c8c"></path><path d="M118.73 19c-.47 0-.94.1-1.41.11H70.91a9.5 9.5 0 0 1-9.67-9.72A9.64 9.64 0 0 1 71 0a71.61 71.61 0 0 1 20.66 3.15 72.82 72.82 0 0 1 26.1 14.42 7.93 7.93 0 0 0 1.44.77z" fill="#2a78b4"></path></svg></svg> <!----></g></g> <g transform="translate(67,11.95949935913086)"><g data-gra="path-name" fill-rule="" class="tp-name iconsvg-namesvg"><g transform="scale(1)"><g><path d="M30.23-37.67L3.95-37.67 1.85-16.89 22.84-16.89 21.66-5.29 0-5.29 0.72 0 26.38 0 28.69-22.17 7.8-22.17 8.83-32.39 24.38-32.39 24.07-29.46 29.36-29.46 30.23-37.67ZM33-26.18L30.23 0 53.22 0 55.02-5.29 36.24-5.29 36.75-10.62 55.59-10.62 57.23-26.18 33-26.18ZM51.17-15.5L37.26-15.5 37.83-20.84 51.74-20.84 51.17-15.5ZM71.7-26.18L78.53-26.18 63.75-11.29 62.57 0 57.23 0 59.95-26.18 65.29-26.18 64.52-18.73 71.7-26.18ZM93-26.18L99.83-26.18 85.05-11.29 83.87 0 78.53 0 81.25-26.18 86.59-26.18 85.82-18.73 93-26.18ZM99.83 0L102.6-26.18 126.83-26.18 124.82-7.65 124.52 0 119.85 0 119.74-2.62 114.3 0 99.83 0ZM107.43-20.84L105.73-5.29 114.82-5.29 119.49-7.7 120.82-20.84 107.43-20.84ZM129.65-26.18L126.83 0 132.22 0 134.42-20.84 147.51-20.84 145.25 0 150.69 0 153.41-26.18 129.65-26.18ZM153.41 0L156.13-26.18 180-26.18 177.18 0 153.41 0ZM161.01-20.84L159.32-5.29 172.4-5.29 174.05-20.84 161.01-20.84Z" transform="translate(0, 37.66999816894531)"></path></g> <!----> <!----> <!----> <!----> <!----> <!----> <!----></g></g> <!----></g></g><defs v-gra="od"></defs></svg>